HIERARCHY
ROOT mixamorig:Hips
{
	OFFSET 0.00 0.00 0.00
	CHANNELS 6 Xposition Yposition Zposition Zrotation Yrotation Xrotation
	JOINT mixamorig:Spine
	{
		OFFSET	0.0000	9.9235	-1.2273
		CHANNELS 3 Zrotation Yrotation Xrotation
		JOINT mixamorig:Spine1
		{
			OFFSET	-0.0001	11.6455	-1.4224
			CHANNELS 3 Zrotation Yrotation Xrotation
			JOINT mixamorig:Spine2
			{
				OFFSET	0.0001	13.3602	-1.6265
				CHANNELS 3 Zrotation Yrotation Xrotation
				JOINT mixamorig:Neck
				{
					OFFSET	0.0000	15.0325	0.7929
					CHANNELS 3 Zrotation Yrotation Xrotation
					JOINT mixamorig:Head
					{
						OFFSET	-0.0000	10.3218	3.1424
						CHANNELS 3 Zrotation Yrotation Xrotation
						JOINT mixamorig:HeadTop_End
						{
							OFFSET	0.0002	18.4747	6.6364
							CHANNELS 3 Zrotation Yrotation Xrotation
							End Site
							{
								OFFSET 0.0000 0.0000 0.0000
							}
						}
						JOINT mixamorig:LeftEye
						{
							OFFSET	2.9479	7.6817	9.1207
							CHANNELS 3 Zrotation Yrotation Xrotation
							End Site
							{
								OFFSET 0.0000 0.0000 0.0000
							}
						}
						JOINT mixamorig:RightEye
						{
							OFFSET	-2.9445	7.6817	9.1205
							CHANNELS 3 Zrotation Yrotation Xrotation
							End Site
							{
								OFFSET 0.0000 0.0000 0.0000
							}
						}
					}
				}
				JOINT mixamorig:LeftShoulder
				{
					OFFSET	6.1059	9.1104	0.7056
					CHANNELS 3 Zrotation Yrotation Xrotation
					JOINT mixamorig:LeftArm
					{
						OFFSET	12.6532	-0.3431	-2.6009
						CHANNELS 3 Zrotation Yrotation Xrotation
						JOINT mixamorig:LeftForeArm
						{
							OFFSET	27.3517	-0.9645	-1.4034
							CHANNELS 3 Zrotation Yrotation Xrotation
							JOINT mixamorig:LeftHand
							{
								OFFSET	27.5619	-0.7072	1.5500
								CHANNELS 3 Zrotation Yrotation Xrotation
								JOINT mixamorig:LeftHandMiddle1
								{
									OFFSET	12.6630	-1.3962	0.9548
									CHANNELS 3 Zrotation Yrotation Xrotation
									JOINT mixamorig:LeftHandMiddle2
									{
										OFFSET	3.6093	-0.1669	0.0778
										CHANNELS 3 Zrotation Yrotation Xrotation
										JOINT mixamorig:LeftHandMiddle3
										{
											OFFSET	3.4004	-0.6274	0.1148
											CHANNELS 3 Zrotation Yrotation Xrotation
											End Site
											{
												OFFSET 3.6205 -0.6493 0.1199
											}
										}
									}
								}
								JOINT mixamorig:LeftHandThumb1
								{
									OFFSET	3.3268	-2.0474	3.5790
									CHANNELS 3 Zrotation Yrotation Xrotation
									JOINT mixamorig:LeftHandThumb2
									{
										OFFSET	3.4890	-1.4806	2.8548
										CHANNELS 3 Zrotation Yrotation Xrotation
										JOINT mixamorig:LeftHandThumb3
										{
											OFFSET	3.4086	-1.7658	2.1133
											CHANNELS 3 Zrotation Yrotation Xrotation
											End Site
											{
												OFFSET 2.7231 -1.1597 1.7903
											}
										}
									}
								}
								JOINT mixamorig:LeftHandIndex1
								{
									OFFSET	11.9722	-1.1061	3.7324
									CHANNELS 3 Zrotation Yrotation Xrotation
									JOINT mixamorig:LeftHandIndex2
									{
										OFFSET	3.8387	-0.6406	-0.0310
										CHANNELS 3 Zrotation Yrotation Xrotation
										JOINT mixamorig:LeftHandIndex3
										{
											OFFSET	3.3346	-0.7374	-0.0133
											CHANNELS 3 Zrotation Yrotation Xrotation
											End Site
											{
												OFFSET 2.9714 -0.8030 0.0009
											}
										}
									}
								}
								JOINT mixamorig:LeftHandRing1
								{
									OFFSET	12.1659	-1.6805	-1.2769
									CHANNELS 3 Zrotation Yrotation Xrotation
									JOINT mixamorig:LeftHandRing2
									{
										OFFSET	3.5925	-0.2366	-0.0771
										CHANNELS 3 Zrotation Yrotation Xrotation
										JOINT mixamorig:LeftHandRing3
										{
											OFFSET	3.2906	-0.3266	-0.0615
											CHANNELS 3 Zrotation Yrotation Xrotation
											End Site
											{
												OFFSET 3.5423 -0.9211 -0.0200
											}
										}
									}
								}
								JOINT mixamorig:LeftHandPinky1
								{
									OFFSET	11.0508	-2.1872	-3.8040
									CHANNELS 3 Zrotation Yrotation Xrotation
									JOINT mixamorig:LeftHandPinky2
									{
										OFFSET	4.1236	-0.3047	0.1212
										CHANNELS 3 Zrotation Yrotation Xrotation
										JOINT mixamorig:LeftHandPinky3
										{
											OFFSET	2.5805	-0.2597	0.0823
											CHANNELS 3 Zrotation Yrotation Xrotation
											End Site
											{
												OFFSET 2.9027 -0.3379 0.0963
											}
										}
									}
								}
							}
						}
					}
				}
				JOINT mixamorig:RightShoulder
				{
					OFFSET	-6.1057	9.1105	0.7056
					CHANNELS 3 Zrotation Yrotation Xrotation
					JOINT mixamorig:RightArm
					{
						OFFSET	-12.6532	-0.3429	-2.6009
						CHANNELS 3 Zrotation Yrotation Xrotation
						JOINT mixamorig:RightForeArm
						{
							OFFSET	-27.3518	-0.9642	-1.4034
							CHANNELS 3 Zrotation Yrotation Xrotation
							JOINT mixamorig:RightHand
							{
								OFFSET	-27.5619	-0.7068	1.5501
								CHANNELS 3 Zrotation Yrotation Xrotation
								JOINT mixamorig:RightHandMiddle1
								{
									OFFSET	-12.6630	-1.3960	0.9549
									CHANNELS 3 Zrotation Yrotation Xrotation
									JOINT mixamorig:RightHandMiddle2
									{
										OFFSET	-3.6093	-0.1669	0.0778
										CHANNELS 3 Zrotation Yrotation Xrotation
										JOINT mixamorig:RightHandMiddle3
										{
											OFFSET	-3.4004	-0.6273	0.1148
											CHANNELS 3 Zrotation Yrotation Xrotation
											End Site
											{
												OFFSET -3.6205 -0.6492 0.1199
											}
										}
									}
								}
								JOINT mixamorig:RightHandThumb1
								{
									OFFSET	-3.3269	-2.0474	3.5790
									CHANNELS 3 Zrotation Yrotation Xrotation
									JOINT mixamorig:RightHandThumb2
									{
										OFFSET	-3.4890	-1.4805	2.8548
										CHANNELS 3 Zrotation Yrotation Xrotation
										JOINT mixamorig:RightHandThumb3
										{
											OFFSET	-3.4086	-1.7658	2.1133
											CHANNELS 3 Zrotation Yrotation Xrotation
											End Site
											{
												OFFSET -2.7231 -1.1596 1.7903
											}
										}
									}
								}
								JOINT mixamorig:RightHandIndex1
								{
									OFFSET	-11.9722	-1.1059	3.7324
									CHANNELS 3 Zrotation Yrotation Xrotation
									JOINT mixamorig:RightHandIndex2
									{
										OFFSET	-3.8387	-0.6406	-0.0310
										CHANNELS 3 Zrotation Yrotation Xrotation
										JOINT mixamorig:RightHandIndex3
										{
											OFFSET	-3.3346	-0.7373	-0.0133
											CHANNELS 3 Zrotation Yrotation Xrotation
											End Site
											{
												OFFSET -2.9715 -0.8029 0.0009
											}
										}
									}
								}
								JOINT mixamorig:RightHandRing1
								{
									OFFSET	-12.1659	-1.6803	-1.2769
									CHANNELS 3 Zrotation Yrotation Xrotation
									JOINT mixamorig:RightHandRing2
									{
										OFFSET	-3.5925	-0.2366	-0.0771
										CHANNELS 3 Zrotation Yrotation Xrotation
										JOINT mixamorig:RightHandRing3
										{
											OFFSET	-3.2906	-0.3265	-0.0615
											CHANNELS 3 Zrotation Yrotation Xrotation
											End Site
											{
												OFFSET -3.5423 -0.9210 -0.0200
											}
										}
									}
								}
								JOINT mixamorig:RightHandPinky1
								{
									OFFSET	-11.0508	-2.1870	-3.8040
									CHANNELS 3 Zrotation Yrotation Xrotation
									JOINT mixamorig:RightHandPinky2
									{
										OFFSET	-4.1236	-0.3046	0.1212
										CHANNELS 3 Zrotation Yrotation Xrotation
										JOINT mixamorig:RightHandPinky3
										{
											OFFSET	-2.5805	-0.2597	0.0823
											CHANNELS 3 Zrotation Yrotation Xrotation
											End Site
											{
												OFFSET -2.9027 -0.3379 0.0963
											}
										}
									}
								}
							}
						}
					}
				}
			}
		}
	}
	JOINT mixamorig:RightUpLeg
	{
		OFFSET	-9.1245	-6.6564	-0.0554
		CHANNELS 3 Zrotation Yrotation Xrotation
		JOINT mixamorig:RightLeg
		{
			OFFSET	0.0000	-40.5610	-1.7662
			CHANNELS 3 Zrotation Yrotation Xrotation
			JOINT mixamorig:RightFoot
			{
				OFFSET	0.4978	-41.9625	-3.3512
				CHANNELS 3 Zrotation Yrotation Xrotation
				JOINT mixamorig:RightToeBase
				{
					OFFSET	-0.3734	-10.4922	12.6406
					CHANNELS 3 Zrotation Yrotation Xrotation
					End Site
					{
						OFFSET 0.0000 0.0000 9.9925
					}
				}
			}
		}
	}
	JOINT mixamorig:LeftUpLeg
	{
		OFFSET	9.1245	-6.6564	-0.0554
		CHANNELS 3 Zrotation Yrotation Xrotation
		JOINT mixamorig:LeftLeg
		{
			OFFSET	-0.0000	-40.5610	-1.7662
			CHANNELS 3 Zrotation Yrotation Xrotation
			JOINT mixamorig:LeftFoot
			{
				OFFSET	-0.4978	-41.9625	-3.3512
				CHANNELS 3 Zrotation Yrotation Xrotation
				JOINT mixamorig:LeftToeBase
				{
					OFFSET	0.3734	-10.4922	12.6406
					CHANNELS 3 Zrotation Yrotation Xrotation
					End Site
					{
						OFFSET -0.0000 0.0000 9.9925
					}
				}
			}
		}
	}
}
MOTION
Frames: 7
Frame Time: 0.0333333
-1.4022 81.0932 -0.4506 -2.7561 -11.3649 13.0232 1.7523 -4.4767 9.6746 -0.4286 -1.2482 3.9167 -0.4441 -1.2725 3.9039 0.8976 4.2867 1.6708 12.3352 19.7099 -4.8790 0.0000 -0.0000 0.0000 0.0000 -0.0000 0.0000 0.0000 -0.0000 0.0000 17.1543 -10.5743 -0.9495 35.0979 -59.9104 -99.9380 -0.4113 -23.6353 -0.6429 -25.5690 2.2982 -122.1842 -56.4331 -4.9784 2.7749 -57.3055 -2.1266 2.4889 -18.1751 -1.0173 0.5736 -3.9151 0.9457 6.7513 10.1449 -9.1882 13.1712 0.6071 -7.6566 -2.0366 -36.6125 -9.2756 0.3860 -57.2742 -2.8310 0.5596 -21.5917 -1.0513 -0.0940 -64.0616 -8.6750 2.8915 -73.9405 -3.9966 0.8925 -16.9118 -0.7411 -0.2249 -66.8344 -3.5043 3.4452 -74.3505 -2.1519 3.8493 -38.0017 -1.7488 1.6344 -2.4083 5.0039 0.5260 84.0812 66.8095 26.1181 -170.0126 79.2894 -172.1585 -22.8555 -41.8031 0.1622 55.6537 1.5151 3.3950 102.7374 3.1547 6.5858 19.0792 1.4530 0.6051 17.0956 -4.9066 13.6525 -23.1250 -7.7074 20.7473 -35.0172 -48.1208 34.8851 11.5392 8.5500 -0.8385 42.9667 3.1008 0.3223 27.1214 1.9611 -0.0564 59.7516 12.7211 2.9457 97.7587 5.9859 3.4127 41.4214 3.1932 0.0999 66.8322 10.7816 3.6334 81.0646 3.3562 5.1857 58.9000 3.2536 3.3787 9.0422 7.2742 -36.9780 -1.4301 3.2256 69.9723 9.4414 -16.1670 -46.5800 0.0000 -0.0000 -5.7162 0.9797 8.9637 -50.8943 5.1441 0.6577 110.8013 3.5375 10.2893 -18.1955 0.0000 0.0000 -1.2953 
-0.5646 85.0208 -0.3882 1.8091 -15.9580 5.2514 3.0799 1.4209 15.1140 -2.0984 -0.5569 3.3311 -1.9353 -0.6567 3.4406 1.5346 3.0810 -0.2290 8.5344 15.9786 -5.1870 0.0000 -0.0000 0.0000 0.0000 -0.0000 0.0000 0.0000 -0.0000 0.0000 17.1237 -10.9403 -1.0424 34.9291 -57.4277 -94.6069 -0.3693 -26.7447 -0.7406 -21.9138 3.1281 -129.0737 -54.7406 -4.5652 2.6877 -57.3628 -2.1275 2.4923 -18.2213 -1.0195 0.5755 -3.9169 0.9225 6.7478 10.1477 -9.1969 13.1645 0.6071 -7.6566 -2.0366 -37.8530 -7.5949 0.7485 -56.7495 -2.8091 0.5419 -20.9811 -1.0186 -0.0966 -63.2975 -9.0468 2.8186 -73.5975 -3.9831 0.8769 -16.5858 -0.7217 -0.2226 -66.3315 -4.0899 3.3693 -74.1962 -2.1531 3.8395 -37.8617 -1.7445 1.6265 0.2445 5.9627 0.8265 80.8686 68.1073 20.9280 -170.8215 78.0704 -172.9832 -16.2457 -44.1098 0.6908 54.7626 1.1629 3.3397 102.4487 3.1647 6.5645 19.0792 1.4530 0.6050 17.1190 -4.9183 13.6558 -23.1368 -7.7363 20.7773 -34.9895 -48.0938 34.8496 10.7819 8.9379 -0.9475 42.9667 3.1008 0.3223 27.1214 1.9612 -0.0564 59.8718 12.5562 2.9668 97.9409 5.9888 3.4270 41.4214 3.1932 0.0999 67.2918 10.6071 3.6852 80.4424 3.3626 5.1345 58.2752 3.2404 3.3285 2.3924 1.8226 -17.0259 -1.1826 6.7158 58.3459 9.9682 -11.6258 -41.6700 0.0000 -0.0000 -21.3785 -4.3675 10.9033 -73.8181 7.3324 -2.8517 114.9481 1.0943 9.9417 -18.3092 0.0000 -0.0000 3.1016 
-0.2997 92.4012 -0.1751 8.7267 -17.3485 -3.4894 0.4720 4.7467 20.3546 -2.5878 0.0862 3.5081 -2.5211 0.0144 3.5057 2.0165 1.9430 -2.6831 6.4053 12.6557 -1.9384 0.0000 -0.0000 0.0000 0.0000 -0.0000 0.0000 0.0000 -0.0000 0.0000 17.1813 -10.7030 -0.9984 33.1249 -58.2494 -88.5471 -0.3415 -28.5587 -0.8001 -17.9828 3.2563 -132.9514 -51.1804 -5.2307 2.4322 -56.4092 -2.1118 2.4354 -17.2884 -0.9731 0.5383 -3.9204 0.8792 6.7412 10.1646 -9.2347 13.1299 0.6071 -7.6566 -2.0366 -36.1232 -8.1142 0.5540 -55.3613 -2.7504 0.4959 -19.6223 -0.9459 -0.1013 -61.1296 -9.7064 2.6370 -74.2642 -4.0092 0.9073 -17.2841 -0.7633 -0.2275 -64.5678 -4.2331 3.2468 -74.3878 -2.1516 3.8517 -38.0587 -1.7506 1.6376 2.4348 5.4805 1.1765 82.0862 65.4430 20.5834 -170.9249 77.8938 -173.0889 -10.7970 -42.5409 0.8982 54.0070 0.8694 3.2927 102.2916 3.1701 6.5528 19.0792 1.4531 0.6050 17.0664 -4.9341 13.6553 -23.1313 -7.7229 20.7634 -34.9859 -48.0866 34.8396 10.7670 9.1264 -0.9815 42.9736 3.1013 0.3225 27.1214 1.9611 -0.0564 59.6265 12.4968 2.9505 97.8973 5.9881 3.4236 41.4214 3.1932 0.0999 67.2696 10.5256 3.6896 80.5387 3.3617 5.1424 58.3703 3.2424 3.3361 -9.2542 -4.1317 2.0553 -0.1184 11.6322 39.6389 7.9716 -8.9777 -19.8506 0.0000 -0.0000 -29.0023 -6.4336 9.1017 -85.1758 7.2621 -1.1649 102.4761 0.9663 11.9675 -10.7272 -0.0000 0.0000 -0.2796 
-0.9624 100.9283 -0.4177 13.1729 -16.4527 -7.9207 -2.6867 6.2712 21.7439 -2.1983 0.6458 3.7541 -2.3401 0.6231 3.8889 1.8382 1.1495 -5.2261 5.7570 10.4277 -0.3617 0.0000 -0.0000 0.0000 0.0000 -0.0000 0.0000 0.0000 -0.0000 0.0000 17.1054 -10.6365 -0.9937 32.0461 -59.8297 -83.1086 -0.3420 -28.5261 -0.7990 -15.0348 2.0723 -135.7972 -46.7502 -5.6277 2.1382 -55.1508 -2.0896 2.3606 -16.0499 -0.9106 0.4902 -3.9196 0.8887 6.7427 10.1753 -9.2585 13.1081 0.6071 -7.6566 -2.0366 -31.2823 -9.5763 0.0114 -53.4846 -2.6692 0.4359 -17.8185 -0.8491 -0.1048 -58.3877 -10.4968 2.4094 -74.8895 -4.0333 0.9361 -17.9572 -0.8034 -0.2318 -61.7552 -4.3476 3.0595 -74.6308 -2.1495 3.8671 -38.3068 -1.7581 1.6517 3.6351 3.9914 1.4359 83.2547 62.2875 22.0172 -170.7168 78.2440 -172.8763 -8.9591 -40.3043 0.7485 51.8881 0.4208 3.1444 102.2432 3.1718 6.5492 19.0792 1.4531 0.6050 17.0406 -4.9377 13.6543 -23.1224 -7.6927 20.7323 -34.9674 -48.0710 34.8117 10.7475 9.6451 -1.0742 42.9956 3.1027 0.3232 27.1214 1.9611 -0.0564 59.2562 12.3550 2.9294 97.8829 5.9879 3.4225 41.4214 3.1932 0.0999 67.3779 10.3509 3.7121 81.1247 3.3556 5.1906 58.9535 3.2547 3.3830 -16.0461 -8.6713 11.7421 -3.9203 13.6828 23.9578 9.4408 -0.4467 16.8397 -3.2115 -1.1994 -34.3221 -3.2496 7.5832 -87.2023 6.5268 3.1873 81.3209 -0.6735 11.5108 -4.9273 -0.0000 -0.0000 -3.2515 
-1.6900 107.9984 -1.2826 13.2024 -15.9005 -7.8156 -4.0063 7.4866 20.0989 -1.7752 1.0096 4.2156 -1.7026 0.9609 4.1775 0.7813 0.8207 -7.1363 6.9017 9.0053 -0.2536 0.0000 -0.0000 0.0000 0.0000 -0.0000 0.0000 0.0000 -0.0000 0.0000 17.2991 -12.0903 -1.3848 32.2235 -59.0251 -79.2755 -0.3352 -28.9420 -0.8129 -14.0996 2.2566 -138.4480 -43.7676 -5.1947 1.9770 -54.0893 -2.0696 2.2980 -14.9796 -0.8557 0.4497 -3.9182 0.9063 6.7454 10.1792 -9.2672 13.1001 0.6071 -7.6566 -2.0366 -27.3230 -10.8935 -0.4497 -51.1268 -2.5646 0.3644 -15.5327 -0.7265 -0.1049 -56.2956 -11.0009 2.2420 -75.2204 -4.0460 0.9515 -18.3246 -0.8252 -0.2340 -59.1966 -4.5755 2.8795 -74.6909 -2.1490 3.8709 -38.3763 -1.7602 1.6557 2.8268 2.0148 1.4315 85.4425 60.8284 23.6082 -170.8391 78.0406 -173.0012 -8.7139 -39.3961 -0.4967 51.6693 -0.0235 3.1474 102.1786 3.1740 6.5444 19.0792 1.4530 0.6051 17.0220 -4.9595 13.6568 -23.1159 -7.6543 20.6927 -34.9521 -48.0623 34.7878 10.5809 9.5412 -1.0647 42.9914 3.1025 0.3231 27.1214 1.9611 -0.0564 59.2670 12.3611 2.9299 97.8546 5.9875 3.4202 41.4214 3.1932 0.0999 67.5814 10.3481 3.7293 81.1736 3.3550 5.1947 59.0024 3.2557 3.3869 -15.8497 -10.8885 4.0020 -1.0048 13.9876 35.5278 16.5109 2.6805 38.5935 -0.0000 0.0000 3.1239 1.0906 8.5882 -86.8439 6.8706 7.8965 58.9460 -5.1426 7.2550 -2.1316 0.0000 0.0000 0.2747 
-1.9556 113.1581 -2.5365 10.3415 -14.9595 -8.9280 -3.2273 7.7025 22.4127 -1.0600 0.9277 4.1199 -0.8784 0.9297 4.0001 -0.5971 0.8591 -7.7462 8.8490 8.3396 -1.8688 0.0000 -0.0000 0.0000 0.0000 -0.0000 0.0000 0.0000 -0.0000 0.0000 17.7355 -13.8175 -1.8624 32.0002 -56.0901 -77.1755 -0.3001 -30.9782 -0.8827 -15.0482 4.3993 -140.4231 -42.1791 -5.1169 1.8850 -53.2128 -2.0523 2.2466 -14.1034 -0.8102 0.4173 -3.9212 0.8690 6.7397 10.2175 -9.3528 13.0217 0.6071 -7.6566 -2.0366 -24.6207 -11.7697 -0.7584 -49.6130 -2.4959 0.3208 -14.0751 -0.6483 -0.1024 -54.8187 -11.4082 2.1203 -75.3571 -4.0512 0.9578 -18.4931 -0.8353 -0.2349 -57.6068 -4.9168 2.7526 -74.7378 -2.1486 3.8739 -38.4375 -1.7620 1.6592 0.4489 0.5367 1.1994 87.4513 61.8679 24.6120 -171.2039 77.3899 -173.3745 -8.5538 -40.3427 -3.4102 52.4160 0.0519 3.2033 102.0775 3.1774 6.5369 19.0792 1.4531 0.6051 16.9830 -4.9718 13.6565 -23.1180 -7.6508 20.6884 -34.9431 -48.0587 34.7740 10.2810 9.0226 -0.9891 42.9709 3.1011 0.3224 27.1214 1.9611 -0.0564 59.5111 12.4642 2.9431 97.7910 5.9864 3.4153 41.4214 3.1932 0.0999 67.7789 10.4931 3.7345 81.1897 3.3549 5.1960 59.0206 3.2561 3.3884 -11.7983 -10.0969 -1.5067 0.3225 9.2057 50.1435 20.1702 1.4171 44.2673 -0.0000 0.0000 19.8418 3.2100 10.5189 -81.9840 3.3591 10.4406 38.4000 -10.7645 6.8795 -0.9011 0.0000 -0.0000 5.4674 
-2.3534 117.2456 -3.9546 7.4477 -13.1676 -13.1582 -2.1855 6.7222 29.3219 0.0065 0.6419 3.3694 -0.1442 0.6664 3.4768 -1.3555 1.0448 -6.9152 10.1992 8.5058 -5.8419 0.0000 -0.0000 0.0000 0.0000 -0.0000 0.0000 0.0000 -0.0000 0.0000 17.9056 -14.7701 -2.1149 30.8287 -53.5983 -76.9868 -0.2715 -32.4959 -0.9368 -16.9928 5.9968 -140.2519 -43.6691 -4.9828 1.9813 -53.3307 -2.0546 2.2535 -14.2160 -0.8161 0.4214 -3.9145 0.8920 6.7430 10.1958 -9.3043 13.0662 0.6071 -7.6566 -2.0366 -26.0044 -11.5835 -0.6467 -49.6441 -2.4973 0.3217 -14.0921 -0.6492 -0.1024 -55.7023 -11.1990 2.1908 -76.0651 -4.0778 0.9910 -19.1818 -0.8764 -0.2385 -58.7734 -4.7961 2.8359 -75.0400 -2.1460 3.8930 -38.7341 -1.7709 1.6761 -1.4701 0.3452 0.9723 87.4881 64.1123 25.1293 -171.2181 77.3634 -173.3891 -9.5385 -41.6464 -6.0482 52.4209 -0.0053 3.2063 102.0311 3.1790 6.5335 19.0792 1.4530 0.6050 16.9499 -5.0094 13.6625 -23.1142 -7.6216 20.6577 -34.9264 -48.0485 34.7493 10.0584 8.9890 -0.9950 42.9703 3.1011 0.3224 27.1214 1.9611 -0.0565 59.6142 12.4525 2.9525 97.7546 5.9859 3.4124 41.4214 3.1932 0.0999 68.0308 10.5061 3.7545 81.3094 3.3536 5.2058 59.1405 3.2586 3.3981 -7.2288 -6.5049 0.4751 -6.5295 -0.6269 61.0498 17.4774 -0.2794 38.3156 -0.0000 0.0000 17.4442 2.4474 12.0838 -72.5416 -0.9649 10.2668 22.4456 -14.0824 9.6785 0.8958 0.0000 -0.0000 4.6367 
